<svg width="312" height="164" viewBox="0 0 312 164" fill="none" xmlns="http://www.w3.org/2000/svg">
<path d="M2 27.0294L24.0643 2.00006C74.0298 2.00006 146.255 3.17811 196.241 2.87317C257.317 2.50058 306.515 2 306.515 2C306.515 2 309.786 33.4661 309.98 54.7492C310.188 77.4558 308.686 112.893 308.686 112.893L291.988 116.468L308.686 124.598C308.686 124.598 309.308 136.489 309.202 141.527C309.024 149.934 308.916 162 308.916 162C308.916 162 190.456 160.616 161.763 160.425C129.307 160.425 2 162 2 162C2 162 5.19953 122.663 5.6476 106.391C6.18619 86.833 5.6476 72.5617 5.6476 72.5617C5.6476 72.5617 11.9064 67.6832 11.9064 57.9263C11.9064 52.2348 5.6476 48.574 5.6476 48.574C5.6476 48.574 6.44638 43.3611 2 27.0294Z" fill="white"/>
<path d="M2 27.0295L24.0643 2.00006M2 27.0295C18.6608 17.2726 39.3743 16.4595 39.3743 16.4595C39.3743 16.4595 38.0234 7.51565 24.0643 2.00006M2 27.0295C6.44638 43.3611 5.6476 48.574 5.6476 48.574C5.6476 48.574 11.9064 52.2348 11.9064 57.9263C11.9064 67.6832 5.6476 72.5617 5.6476 72.5617C5.6476 72.5617 6.18619 86.833 5.6476 106.391C5.19953 122.663 2 162 2 162C2 162 129.307 160.425 161.763 160.425C190.456 160.616 308.916 162 308.916 162C308.916 162 309.024 149.934 309.202 141.527C309.308 136.489 308.686 124.598 308.686 124.598L291.988 116.468L308.686 112.893C308.686 112.893 310.188 77.4558 309.98 54.7492C309.786 33.4661 306.515 2 306.515 2C306.515 2 257.317 2.50058 196.241 2.87317C146.255 3.17811 74.0298 2.00006 24.0643 2.00006" stroke="#CAB9A9" stroke-width="3"/>
</svg>
