<svg width="350" height="199" viewBox="0 0 350 199" fill="none" xmlns="http://www.w3.org/2000/svg">
<path d="M20 42.0294L42.0643 17.0001C92.0298 17.0001 164.255 18.1781 214.241 17.8732C275.317 17.5006 324.515 17 324.515 17C324.515 17 327.786 48.4661 327.98 69.7492C328.188 92.4558 326.686 127.893 326.686 127.893L309.988 131.468L326.686 139.598C326.686 139.598 327.308 151.489 327.202 156.527C327.024 164.934 326.916 177 326.916 177C326.916 177 208.456 175.616 179.763 175.425C147.307 175.425 20 177 20 177C20 177 23.1995 137.663 23.6476 121.391C24.1862 101.833 23.6476 87.5617 23.6476 87.5617C23.6476 87.5617 29.9064 82.6832 29.9064 72.9263C29.9064 67.2348 23.6476 63.574 23.6476 63.574C23.6476 63.574 24.4464 58.3611 20 42.0294Z" fill="white"/>
<path d="M20 42.0295L42.0643 17.0001M20 42.0295C36.6608 32.2726 57.3743 31.4595 57.3743 31.4595C57.3743 31.4595 56.0234 22.5156 42.0643 17.0001M20 42.0295C24.4464 58.3611 23.6476 63.574 23.6476 63.574C23.6476 63.574 29.9064 67.2348 29.9064 72.9263C29.9064 82.6832 23.6476 87.5617 23.6476 87.5617C23.6476 87.5617 24.1862 101.833 23.6476 121.391C23.1995 137.663 20 177 20 177C20 177 147.307 175.425 179.763 175.425C208.456 175.616 326.916 177 326.916 177C326.916 177 327.024 164.934 327.202 156.527C327.308 151.489 326.686 139.598 326.686 139.598L309.988 131.468L326.686 127.893C326.686 127.893 328.188 92.4558 327.98 69.7492C327.786 48.4661 324.515 17 324.515 17C324.515 17 275.317 17.5006 214.241 17.8732C164.255 18.1781 92.0298 17.0001 42.0643 17.0001" stroke="#CAB9A9" stroke-width="3"/>
</svg>
